<?xml version="1.0" encoding="UTF-8" standalone="no"?>
<!-- Created with Inkscape (http://www.inkscape.org/) -->

<svg
   version="1.1"
   id="svg1"
   width="500"
   height="180"
   viewBox="0 0 500 180"
   sodipodi:docname="logo.svg"
   inkscape:version="1.3.2 (091e20ef0f, 2023-11-25, custom)"
   xmlns:inkscape="http://www.inkscape.org/namespaces/inkscape"
   xmlns:sodipodi="http://sodipodi.sourceforge.net/DTD/sodipodi-0.dtd"
   xmlns="http://www.w3.org/2000/svg"
   xmlns:svg="http://www.w3.org/2000/svg">
  <defs
     id="defs1" />
  <sodipodi:namedview
     id="namedview1"
     pagecolor="#505050"
     bordercolor="#ffffff"
     borderopacity="1"
     inkscape:showpageshadow="0"
     inkscape:pageopacity="0"
     inkscape:pagecheckerboard="1"
     inkscape:deskcolor="#505050"
     inkscape:zoom="1.5127224"
     inkscape:cx="232.69306"
     inkscape:cy="104.44745"
     inkscape:window-width="1920"
     inkscape:window-height="1052"
     inkscape:window-x="0"
     inkscape:window-y="0"
     inkscape:window-maximized="1"
     inkscape:current-layer="g1" />
  <g
     inkscape:groupmode="layer"
     inkscape:label="Image"
     id="g1">
    <g
       id="g2"
       transform="matrix(1.4585015,0,0,1.507131,-87.984244,-87.842107)">
      <path
         id="path1"
         style="fill:#000000;stroke:#000000;stroke-width:0;stroke-dasharray:none;stroke-opacity:1"
         d="m 87.674983,58.28432 c -15.65068,0 -21.08534,2.04385 -25.03906,9.41602 -3.08707,5.75625 -3.08151,10.0889 0.0195,15.8711 4.20631,7.84314 9.39643,9.52086 28.10547,9.08789 l 16.236317,-0.375 -6.37695,-5.33398 c -5.899427,-4.93345 -7.118677,-5.38332 -16.261717,-6 -10.84166,-0.73125 -14.25649,-3.03754 -11.3457,-7.66603 1.17857,-1.87405 3.74163,-2.40907 13.01758,-2.71875 l 11.54882,-0.38476 18.847657,15.29688 18.84766,15.29688 4.46289,-3.40235 c 2.45428,-1.87197 4.43153,-3.78312 4.39453,-4.24609 -0.037,-0.46296 -9.71342,-8.49181 -21.50391,-17.8418 l -21.4375,-17.00001 z m 41.023437,0 c -4.67469,0 -8.49805,0.1978 -8.49805,0.43945 0,0.24164 9.29936,7.8445 20.66601,16.89455 11.36666,9.05003 20.66602,16.94106 20.66602,17.53711 0,0.59603 -6.8987,6.60714 -15.33203,13.35742 l -15.33399,12.27343 v 7.19336 7.19336 l 3.20704,-2.44336 c 11.28965,-8.60593 46.10979,-37.15254 46.02929,-37.73632 -0.0537,-0.38951 -9.7304,-8.359 -21.50195,-17.70899 L 137.19842,58.28432 Z m -20.49805,34.459 0.004,36.4375 c 0.005,34.18161 0.17182,36.70988 2.69336,40.8457 1.47837,2.42481 4.62526,5.28092 6.99414,6.3457 4.93967,2.22031 11.81878,1.64228 16.42969,-1.3789 6.17708,-4.04738 7.76734,-8.29569 8.32813,-22.25782 0.28978,-7.21451 0.0942,-13.11718 -0.43555,-13.11718 -0.52976,0 -3.30072,1.84971 -6.15625,4.11132 -4.84646,3.83847 -5.19141,4.57515 -5.19141,11.07813 0,8.63062 -2.26183,12.20139 -6.97851,11.01758 -2.16399,-0.54313 -3.70475,-2.09325 -4.25391,-4.28125 -0.47362,-1.88705 -0.79624,-16.04672 -0.71484,-31.46485 l 0.14844,-28.0332 -5.4336,-4.65039 z" />
    </g>
    <text
       xml:space="preserve"
       style="font-size:75.6155px;line-height:60.0199px;font-family:'Zona Pro';-inkscape-font-specification:'Zona Pro';text-align:start;letter-spacing:13.3378px;word-spacing:0px;text-anchor:start;fill:#000000;fill-opacity:1;stroke:#000000;stroke-width:1.33323;stroke-linecap:square;stroke-dasharray:none;stroke-opacity:1;paint-order:markers stroke fill"
       x="201.19917"
       y="100.15969"
       id="text2"
       transform="scale(0.98373457,1.0165344)"><tspan
         sodipodi:role="line"
         x="201.19917"
         y="100.15969"
         style="text-align:start;text-anchor:start;fill:#000000;fill-opacity:1;stroke-width:1.33323;stroke-dasharray:none"
         id="tspan6">Trade</tspan></text>
    <text
       xml:space="preserve"
       style="font-size:75.6155px;line-height:60.0199px;font-family:'Zona Pro';-inkscape-font-specification:'Zona Pro';text-align:start;letter-spacing:13.3378px;word-spacing:0px;text-anchor:start;fill:#000000;fill-opacity:1;stroke:#000000;stroke-width:1.33323;stroke-linecap:square;stroke-dasharray:none;stroke-opacity:1;paint-order:markers stroke fill"
       x="197.49445"
       y="168.7811"
       id="text2-1"
       transform="scale(0.98373457,1.0165344)"><tspan
         sodipodi:role="line"
         x="197.49445"
         y="168.7811"
         style="text-align:start;text-anchor:start;fill:#000000;fill-opacity:1;stroke-width:1.33323;stroke-dasharray:none"
         id="tspan6-7">Fusion</tspan></text>
  </g>
</svg>
