<?xml version="1.0" encoding="UTF-8" standalone="no"?>
<!-- Created with Inkscape (http://www.inkscape.org/) -->

<svg
   width="100mm"
   height="100mm"
   viewBox="0 0 100 100"
   version="1.1"
   id="svg1"
   inkscape:version="1.3.2 (091e20ef0f, 2023-11-25, custom)"
   sodipodi:docname="shape.svg"
   xmlns:inkscape="http://www.inkscape.org/namespaces/inkscape"
   xmlns:sodipodi="http://sodipodi.sourceforge.net/DTD/sodipodi-0.dtd"
   xmlns="http://www.w3.org/2000/svg"
   xmlns:svg="http://www.w3.org/2000/svg">
  <sodipodi:namedview
     id="namedview1"
     pagecolor="#505050"
     bordercolor="#ffffff"
     borderopacity="1"
     inkscape:showpageshadow="0"
     inkscape:pageopacity="0"
     inkscape:pagecheckerboard="1"
     inkscape:deskcolor="#505050"
     inkscape:document-units="mm"
     inkscape:zoom="0.75544332"
     inkscape:cx="397.11781"
     inkscape:cy="101.92691"
     inkscape:window-width="1920"
     inkscape:window-height="1052"
     inkscape:window-x="0"
     inkscape:window-y="0"
     inkscape:window-maximized="1"
     inkscape:current-layer="layer1" />
  <defs
     id="defs1" />
  <g
     inkscape:label="Layer 1"
     inkscape:groupmode="layer"
     id="layer1">
    <path
       id="path1"
       style="fill:#000000;stroke:#000000;stroke-width:0;stroke-dasharray:none;stroke-opacity:1"
       d="M 22.833838,0 C 9.7673996,0 5.2301119,1.7113066 1.9292312,7.8839868 -0.64810104,12.703667 -0.64345913,16.331374 1.9455132,21.17278 5.4572761,27.739802 9.7904027,29.144548 25.410203,28.782025 L 38.965578,28.468039 33.64159,24.001925 C 28.716278,19.871172 27.698351,19.494498 20.06501,18.978154 11.013526,18.365883 8.1625547,16.434838 10.592713,12.559426 c 0.983965,-1.569133 3.123812,-2.017101 10.868116,-2.276395 l 9.641878,-0.3221577 15.735528,12.8080007 15.735532,12.808001 3.725976,-2.848771 c 2.04903,-1.567391 3.699795,-3.167587 3.668905,-3.55523 -0.0309,-0.387634 -8.109539,-7.11015 -17.953182,-14.93885 L 34.117729,0 Z m 34.24964,0 c -3.902804,0 -7.09485,0.16561783 -7.09485,0.36795006 0,0.20232328 7.763847,6.56816084 17.253634,14.14572294 9.489796,7.577545 17.253644,14.184665 17.253644,14.683735 0,0.499052 -5.759585,5.532124 -12.800402,11.184099 L 58.893465,50.657989 v 6.022964 6.022965 l 2.677492,-2.045813 C 70.996458,53.452404 100.06709,29.550469 99.999884,29.061673 99.955057,28.735539 91.876168,22.062724 82.04834,14.234024 L 64.179957,0 Z m -17.113408,28.852349 0.0033,30.508937 c 0.0042,28.620091 0.143455,30.736999 2.248631,34.1999 1.234261,2.030282 3.861537,4.421687 5.839267,5.313223 4.12403,1.859051 9.867261,1.375071 13.716817,-1.154546 5.157119,-3.388851 6.484796,-6.945939 6.952988,-18.636361 0.241931,-6.040674 0.07864,-10.98295 -0.363632,-10.98295 -0.442286,0 -2.755705,1.548753 -5.139728,3.442388 -4.046214,3.213932 -4.334205,3.83075 -4.334205,9.275663 0,7.226375 -1.888356,10.216162 -5.826217,9.224964 C 51.260619,89.588807 49.97427,88.2909 49.515787,86.458899 49.120371,84.878881 48.851022,73.02306 48.918981,60.113537 L 49.042909,36.641478 44.506507,32.74773 Z" />
  </g>
</svg>
