<?xml version="1.0" encoding="UTF-8" standalone="no"?>
<!-- Created with Inkscape (http://www.inkscape.org/) -->

<svg
   width="5000mm"
   height="938.91803mm"
   viewBox="0 0 5000 938.91797"
   version="1.1"
   id="svg1"
   xml:space="preserve"
   inkscape:version="1.3.2 (091e20ef0f, 2023-11-25, custom)"
   sodipodi:docname="logo2.svg"
   xmlns:inkscape="http://www.inkscape.org/namespaces/inkscape"
   xmlns:sodipodi="http://sodipodi.sourceforge.net/DTD/sodipodi-0.dtd"
   xmlns="http://www.w3.org/2000/svg"
   xmlns:svg="http://www.w3.org/2000/svg"><sodipodi:namedview
     id="namedview1"
     pagecolor="#505050"
     bordercolor="#000000"
     borderopacity="1"
     inkscape:showpageshadow="0"
     inkscape:pageopacity="0"
     inkscape:pagecheckerboard="1"
     inkscape:deskcolor="#505050"
     inkscape:document-units="mm"
     inkscape:zoom="0.06228442"
     inkscape:cx="8316.6866"
     inkscape:cy="-176.60918"
     inkscape:window-width="1500"
     inkscape:window-height="2372"
     inkscape:window-x="1920"
     inkscape:window-y="0"
     inkscape:window-maximized="1"
     inkscape:current-layer="layer1" /><defs
     id="defs1"><rect
       x="4125.5151"
       y="1350.5712"
       width="6051.7397"
       height="1889.3236"
       id="rect1" /></defs><g
     inkscape:label="Layer 1"
     inkscape:groupmode="layer"
     id="layer1"><path
       style="fill:#000000;stroke-width:4.79684"
       d="M 421.05452,619.16505 C 349.96439,443.30159 291.08048,297.5989 290.20105,295.38124 c -0.87954,-2.21768 117.48154,-4.0321 263.02431,-4.0321 145.5429,0 263.90395,1.81442 263.02445,4.0321 -67.41149,169.99085 -260.9577,643.53671 -263.02445,643.53671 -1.60394,0 -61.08088,-143.8891 -132.17084,-319.7529 z M 235.15276,542.00452 C 109.02028,371.91904 6.75506,231.82401 7.89698,230.68213 c 2.1595,-2.15944 209.97402,48.44257 225.69644,54.95629 6.39166,2.64803 40.97177,83.75037 121.01634,283.82544 61.63743,154.06499 111.57446,280.49439 110.97139,280.95339 -0.60317,0.4587 -104.2959,-138.3273 -230.42839,-308.41273 z m 405.53869,305.77383 c 12.37413,-34.4627 221.76576,-554.97935 224.49316,-558.05698 4.2699,-4.81832 230.38629,-62.02213 233.36959,-59.03894 1.1402,1.14026 -82.658,116.16949 -186.21879,255.62022 -264.7047,356.4423 -274.53232,369.5201 -271.64396,361.4757 z M 429.70733,124.68427 553.20101,1.1904705 673.13319,121.05071 c 65.96273,65.92304 119.93206,121.4953 119.93206,123.4937 0,1.99847 -109.54157,3.63353 -243.42585,3.63353 H 306.21365 Z M 107.5256,210.37796 0,183.06375 107.22213,112.58597 c 58.97211,-38.76289 107.97722,-69.72263 108.90024,-68.79963 1.99297,1.99276 15.47727,156.70783 15.61919,179.20848 0.0747,11.85383 -1.91316,15.48277 -8.29602,15.14348 -4.61704,-0.24534 -56.78085,-12.73756 -115.91994,-27.76034 z m 767.35721,10.21849 c 0.4519,-29.89267 12.4129,-173.77758 14.6303,-175.99494 1.1366,-1.13655 50.3656,29.55503 109.3978,68.20394 L 1106.242,183.0758 996.42251,210.69475 c -60.4008,15.19037 -112.5179,27.67971 -115.8157,27.75429 -3.8019,0.086 -5.8964,-6.44711 -5.724,-17.85259 z M 273.1094,194.93877 C 266.16849,130.09366 260.02516,26.51962 262.94575,23.57971 265.84752,20.6586 491.83424,-1.8014195 494.28427,0.5879305 494.84456,1.1343105 445.93337,50.91612 385.59285,111.21418 L 275.88244,220.84663 Z M 718.49554,108.37698 C 616.84829,6.2196605 609.67848,-2.0816795 625.17734,0.3322405 c 9.23387,1.43809 61.03927,6.30222 115.12328,10.8091695 54.08373,4.50684 100.12719,9.77924 102.31869,11.71663 3.5932,3.17628 -8.2693,190.43101 -12.3202,194.48191 -0.9332,0.93305 -51.24469,-48.1002 -111.80357,-108.96297 z"
       id="path1" /><text
       xml:space="preserve"
       transform="matrix(0.65726633,0,0,0.6572663,-1509.4129,-398.44373)"
       id="text1"
       style="font-size:1094.43px;line-height:0px;font-family:'Zona Pro';-inkscape-font-specification:'Zona Pro';text-align:center;letter-spacing:64.5354px;word-spacing:0px;shape-inside:url(#rect1);fill:#000000;stroke:#000000;stroke-width:1.1;stroke-linecap:round;stroke-linejoin:round;paint-order:stroke fill markers"><tspan
         x="4399.5487"
         y="1706.2601"
         id="tspan3"><tspan
           dx="0 0 0 0 -0.00012207031 0 0.00030517578"
           id="tspan1">MAJESTY</tspan></tspan></text><text
       xml:space="preserve"
       style="font-size:784.894px;line-height:0px;font-family:'Zona Pro';-inkscape-font-specification:'Zona Pro';text-align:center;letter-spacing:29.6671px;word-spacing:0px;text-anchor:middle;stroke:#000000;stroke-width:0.326339;stroke-linecap:round;stroke-linejoin:round;paint-order:stroke fill markers"
       x="5271.8398"
       y="2478.4033"
       id="text2"><tspan
         sodipodi:role="line"
         id="tspan2"
         style="stroke-width:0.326339"
         x="5271.8398"
         y="2478.4033" /></text></g></svg>
