<?xml version="1.0" encoding="UTF-8" standalone="no"?>
<!-- Created with Inkscape (http://www.inkscape.org/) -->

<svg
   version="1.1"
   id="svg1"
   width="1000"
   height="1000"
   viewBox="0 0 1000 1000"
   sodipodi:docname="logo.svg"
   inkscape:version="1.3.2 (091e20ef0f, 2023-11-25, custom)"
   xmlns:inkscape="http://www.inkscape.org/namespaces/inkscape"
   xmlns:sodipodi="http://sodipodi.sourceforge.net/DTD/sodipodi-0.dtd"
   xmlns="http://www.w3.org/2000/svg"
   xmlns:svg="http://www.w3.org/2000/svg">
  <defs
     id="defs1" />
  <sodipodi:namedview
     id="namedview1"
     pagecolor="#505050"
     bordercolor="#ffffff"
     borderopacity="1"
     inkscape:showpageshadow="0"
     inkscape:pageopacity="0"
     inkscape:pagecheckerboard="1"
     inkscape:deskcolor="#505050"
     inkscape:zoom="0.60630349"
     inkscape:cx="331.51714"
     inkscape:cy="413.98409"
     inkscape:window-width="1920"
     inkscape:window-height="1052"
     inkscape:window-x="0"
     inkscape:window-y="1320"
     inkscape:window-maximized="1"
     inkscape:current-layer="g1" />
  <g
     inkscape:groupmode="layer"
     inkscape:label="Image"
     id="g1">
    <path
       style="fill:#000000;stroke-width:4.33613"
       d="M 380.61694,664.22469 C 316.3543,505.25087 263.12539,373.54122 262.33045,371.53659 c -0.79498,-2.00463 106.19877,-3.64477 237.76389,-3.64477 131.5651,0 238.55886,1.64014 237.76387,3.64477 -60.93743,153.6653 -235.89561,581.7314 -237.76387,581.7314 -1.44997,0 -55.21482,-130.06951 -119.4774,-289.0433 z M 212.56897,594.47458 C 98.550054,440.72387 6.106358,314.08332 7.138563,313.05112 c 1.952116,-1.95211 189.808367,43.79023 204.020867,49.67838 5.77779,2.39371 37.03683,75.7071 109.39414,256.56728 55.71771,139.26881 100.85887,253.55546 100.31373,253.9703 -0.54518,0.41478 -94.27941,-125.04174 -208.29833,-278.7925 z m 366.5913,276.40715 c 11.1858,-31.15285 200.46766,-501.67936 202.93312,-504.46141 3.85981,-4.3555 208.26029,-56.06563 210.95709,-53.36887 1.0307,1.03079 -74.71979,105.01271 -168.33454,231.07085 C 585.43307,866.33181 576.54932,878.15344 579.16027,870.88173 Z M 388.43879,217.23317 500.0723,105.5996 608.4863,213.94855 c 59.62773,59.59192 108.41402,109.82703 108.41402,111.63356 0,1.80654 -99.02142,3.28461 -220.04755,3.28461 H 276.8052 Z M 97.198964,294.69695 0,270.0059 96.924614,206.29676 c 53.308556,-35.04003 97.607306,-63.02646 98.441726,-62.19209 1.80143,1.80144 13.99078,141.65768 14.11908,161.99743 0.0677,10.71535 -1.7295,13.99575 -7.49932,13.68914 -4.17351,-0.22181 -51.32773,-11.51422 -104.787136,-25.09429 z m 693.661236,9.23709 c 0.40848,-27.02177 11.22085,-157.08807 13.22518,-159.09239 1.02753,-1.02755 45.52869,26.7165 98.89145,61.65347 l 97.02315,63.52171 -99.27263,24.96641 c -54.59999,13.73153 -101.71176,25.02151 -104.69284,25.08882 -3.43672,0.0776 -5.33018,-5.82787 -5.17431,-16.13802 z M 246.88029,280.74048 c -6.27432,-58.61741 -11.82754,-152.2442 -9.18757,-154.90183 2.62312,-2.64064 206.90638,-22.9435 209.1211,-20.78368 0.5065,0.49399 -43.70726,45.49476 -98.25286,100.0017 l -99.17387,99.10354 z m 402.61187,-78.24844 c -91.88523,-92.34626 -98.36643,-99.85027 -84.35604,-97.6682 8.34703,1.30001 55.17714,5.69696 104.06687,9.771 48.88976,4.07405 90.5113,8.84017 92.49231,10.59139 3.24806,2.87129 -7.47517,172.14219 -11.13711,175.80411 -0.84346,0.84346 -46.32316,-43.48078 -101.06603,-98.4983 z"
       id="path1" />
  </g>
</svg>
